<svg width="60" height="61" viewBox="0 0 60 61" fill="none" xmlns="http://www.w3.org/2000/svg">
<path d="M31.238 33.9942C28.9964 33.9838 26.7695 33.6326 24.6335 32.9527C21.2206 31.8109 18.6858 28.9217 17.9977 25.3893C17.2448 21.7628 18.6169 17.9283 21.7614 14.8693C22.0988 14.5407 22.4494 14.226 22.8132 13.925C26.0328 11.2296 30.3735 10.2928 34.4182 11.4206C38.3339 12.6704 41.0396 16.249 41.1749 20.3571C41.3216 22.7219 40.5508 25.0521 39.023 26.863C37.8447 28.3473 35.9356 29.0484 34.0768 28.6794C33.3165 28.5217 32.6533 28.0613 32.2397 27.4042C31.8685 26.766 31.7734 26.0041 31.9761 25.2942C32.8506 21.9886 33.7397 16.9651 33.7485 16.9142C33.8106 16.5623 34.0557 16.2703 34.3915 16.1481C34.7273 16.026 35.1028 16.0922 35.3765 16.322C35.6502 16.5517 35.7806 16.91 35.7185 17.2619C35.6814 17.4709 34.8059 22.4191 33.9099 25.8054C33.8459 25.9931 33.862 26.1988 33.9543 26.3742C34.0925 26.5655 34.3012 26.6941 34.5343 26.7316C35.6722 26.9215 36.8216 26.465 37.5192 25.5461C38.7056 24.1268 39.3 22.3052 39.1791 20.4592C39.0814 17.1892 36.937 14.3343 33.8238 13.3292C30.4255 12.3945 26.7848 13.193 24.0897 15.4642C23.7684 15.7309 23.4559 16.0101 23.1561 16.3021C21.6015 17.8143 19.119 20.9521 19.9555 24.9821C20.5175 27.7976 22.5284 30.105 25.2406 31.0466C29.9306 32.5427 36.6698 32.7228 40.2205 28.3078C40.5694 27.8877 41.1908 27.8251 41.6164 28.1672C42.0421 28.5094 42.1145 29.1297 41.7791 29.5607C39.1534 32.826 35.1579 33.9942 31.238 33.9942Z" fill="#FF5E14"/>
<path d="M27.8153 28.8094C26.7583 28.8275 25.7273 28.4809 24.8959 27.8279C22.9765 26.2918 22.9237 23.6233 23.4618 21.806C23.643 21.2008 23.8863 20.6159 24.1879 20.0608C24.9382 18.5469 26.138 17.3018 27.623 16.4959C29.4723 15.5363 31.7318 15.9002 33.1864 17.3919C33.908 18.1827 34.4516 19.1192 34.7804 20.138C34.9545 20.655 34.6821 21.2162 34.1682 21.3992C33.6542 21.5823 33.0884 21.3196 32.8966 20.8089C32.6595 20.0562 32.2654 19.3623 31.7404 18.7732C30.8923 17.906 29.571 17.7086 28.5066 18.2903C27.3929 18.9184 26.4979 19.872 25.9416 21.0232C25.7078 21.4545 25.519 21.9087 25.3781 22.3787C24.9895 23.6932 25.0749 25.4087 26.1472 26.2674C27.3195 27.2088 29.2972 26.8108 30.4099 25.8509C31.2391 25.1043 31.9516 24.2376 32.5236 23.2796C32.7088 22.9692 33.0471 22.783 33.4084 22.7924C33.7697 22.8018 34.0978 23.0055 34.2665 23.3251C34.4353 23.6447 34.4185 24.0305 34.2226 24.3342C33.5451 25.463 32.7017 26.4835 31.7206 27.3615C30.6271 28.2841 29.2459 28.7962 27.8153 28.8094Z" fill="#FF5E14"/>
<path d="M56.9999 60.004H2.99999C1.3439 60.0021 0.00181871 58.6601 0 57.004V20.0041C1.572e-05 19.6163 0.224216 19.2635 0.575282 19.0988C0.926348 18.9341 1.34098 18.9872 1.6392 19.2351L26.1762 39.6275C28.3964 41.4611 31.6056 41.4605 33.8251 39.6261L58.3599 19.2351C58.6581 18.9867 59.073 18.9333 59.4244 19.098C59.7758 19.2628 60.0001 19.616 59.9999 20.0041V57.004C59.9981 58.6601 58.656 60.0021 56.9999 60.004ZM2 22.1353V57.004C2.00071 57.556 2.44801 58.0033 2.99999 58.004H56.9999C57.552 58.0035 57.9994 57.5561 57.9999 57.004V22.1353L35.102 41.1653C32.1414 43.612 27.8607 43.6127 24.8993 41.1668L2 22.1353Z" fill="#FF5E14"/>
<path d="M1.00098 21.004C0.565408 21.0043 0.179683 20.7228 0.0473447 20.3078C-0.0849941 19.8928 0.0664966 19.4399 0.421878 19.1881L9.42186 12.8081C9.87245 12.4958 10.4905 12.6045 10.8074 13.0518C11.1244 13.4992 11.0221 14.1183 10.5781 14.4399L1.57808 20.8199C1.40955 20.9398 1.20781 21.0041 1.00098 21.004Z" fill="#FF5E14"/>
<path d="M58.999 21.004C58.7922 21.0041 58.5904 20.9398 58.4219 20.8199L49.4219 14.4399C48.9779 14.1183 48.8756 13.4992 49.1926 13.0518C49.5095 12.6045 50.1275 12.4958 50.5781 12.8081L59.5781 19.1881C59.9335 19.4399 60.085 19.8928 59.9526 20.3078C59.8203 20.7228 59.4346 21.0043 58.999 21.004Z" fill="#FF5E14"/>
<path d="M39.2391 7.00421C39.0321 7.00432 38.8302 6.93998 38.6614 6.82011L33.8814 3.43012C31.6625 1.55511 28.4201 1.53558 26.1788 3.38372L21.3388 6.82021C21.0473 7.02693 20.6677 7.06243 20.3429 6.91335C20.0182 6.76426 19.7976 6.45325 19.7643 6.09745C19.7311 5.74165 19.8901 5.39513 20.1816 5.18842L24.9616 1.79843C27.9152 -0.616604 32.1667 -0.597395 35.0984 1.84423L39.8184 5.18802C40.1741 5.4398 40.3258 5.89292 40.1933 6.3081C40.0609 6.72327 39.6749 7.00488 39.2391 7.00421Z" fill="#FF5E14"/>
<path d="M1.64985 59.4638C1.22842 59.4642 0.851987 59.2003 0.70862 58.804C0.565254 58.4077 0.685726 57.9641 1.00985 57.6947L23.8298 38.7348C24.104 38.5016 24.4824 38.4338 24.8205 38.5572C25.1586 38.6807 25.4043 38.9763 25.4638 39.3313C25.5233 39.6862 25.3875 40.0458 25.1081 40.2728L2.28815 59.2327C2.10898 59.3821 1.8831 59.4639 1.64985 59.4638Z" fill="#FF5E14"/>
<path d="M58.3483 59.4642C58.1153 59.4644 57.8896 59.3826 57.7106 59.2332L34.8907 40.2733C34.6113 40.0463 34.4755 39.6867 34.535 39.3317C34.5945 38.9768 34.8402 38.6811 35.1783 38.5577C35.5164 38.4343 35.8948 38.5021 36.169 38.7353L58.9883 57.6952C59.3125 57.9646 59.4329 58.4082 59.2896 58.8045C59.1462 59.2008 58.7698 59.4647 58.3483 59.4643V59.4642Z" fill="#FF5E14"/>
<path d="M49.9999 28.484C49.4476 28.484 48.9999 28.0363 48.9999 27.484V7.01187C48.997 7.03287 48.9569 7.00457 48.8899 7.00407H11.11C11.0658 7.00136 11.0224 7.0169 10.99 7.04707L11 27.484C11 28.0363 10.5523 28.484 9.99997 28.484C9.44768 28.484 8.99997 28.0363 8.99997 27.484V7.00407C9.03223 5.86997 9.97576 4.97563 11.11 5.00408H48.8899C50.024 4.97574 50.9675 5.87002 50.9999 7.00407V27.484C50.9999 28.0363 50.5522 28.484 49.9999 28.484Z" fill="#FF5E14"/>
</svg>
