<svg width="60" height="76" viewBox="0 0 60 76" fill="none" xmlns="http://www.w3.org/2000/svg">
<path d="M33.212 9.32893C33.1165 9.32893 33.0194 9.31858 32.9233 9.2996C32.8307 9.28177 32.7382 9.25245 32.6484 9.21564C32.5599 9.17884 32.4742 9.13284 32.3948 9.07993C32.3138 9.02703 32.239 8.96492 32.1712 8.89764C32.1033 8.82979 32.0418 8.75445 31.9871 8.67395C31.9342 8.59402 31.8888 8.50891 31.852 8.4192C31.8152 8.33064 31.787 8.23806 31.768 8.14375C31.7485 8.04944 31.7399 7.95226 31.7399 7.8568C31.7399 7.76135 31.7485 7.66416 31.768 7.56985C31.787 7.47555 31.8152 7.38239 31.852 7.29441C31.8888 7.2047 31.9342 7.11902 31.9871 7.03966C32.0418 6.95858 32.1033 6.88382 32.1712 6.81597C32.239 6.74811 32.3143 6.68658 32.3948 6.63367C32.4742 6.57905 32.5599 6.53477 32.6484 6.49796C32.7382 6.46116 32.8307 6.43183 32.9233 6.41286C33.1131 6.37605 33.3092 6.37605 33.4989 6.41286C33.5932 6.43183 33.6858 6.46116 33.7744 6.49796C33.8641 6.53477 33.9492 6.57905 34.0291 6.63367C34.1096 6.68658 34.185 6.74811 34.2528 6.81597C34.3207 6.88382 34.3822 6.95858 34.4351 7.03966C34.488 7.11902 34.534 7.2047 34.5708 7.29441C34.6076 7.38296 34.6352 7.47555 34.6548 7.56985C34.6738 7.66416 34.6841 7.76135 34.6841 7.8568C34.6841 7.95226 34.6738 8.04944 34.6548 8.14375C34.6352 8.23806 34.6076 8.33064 34.5708 8.4192C34.534 8.50891 34.488 8.59402 34.4351 8.67395C34.3822 8.75445 34.3207 8.82979 34.2528 8.89764C34.185 8.96492 34.1096 9.02703 34.0291 9.07993C33.9492 9.13284 33.8641 9.17884 33.7744 9.21564C33.6858 9.25245 33.5932 9.28177 33.4989 9.2996C33.4046 9.31858 33.308 9.32893 33.212 9.32893Z" fill="#FF5E14"/>
<path d="M21.3349 71.8136C19.11 71.8136 17.3004 70.0039 17.3004 67.7797C17.3004 65.5548 19.11 63.7451 21.3349 63.7451C23.5598 63.7451 25.37 65.5548 25.37 67.7797C25.37 70.0039 23.5598 71.8136 21.3349 71.8136ZM21.3349 66.6894C20.734 66.6894 20.2446 67.1782 20.2446 67.7797C20.2446 68.3806 20.734 68.8694 21.3349 68.8694C21.9364 68.8694 22.4258 68.3806 22.4258 67.7797C22.4258 67.1782 21.9364 66.6894 21.3349 66.6894Z" fill="#FF5E14"/>
<path d="M56.1322 12.39H42.6703V4.57221C42.6703 2.0512 40.6186 0 38.097 0H4.57336C2.0512 0 0 2.0512 0 4.57221V70.8006C0 73.3216 2.05177 75.3728 4.57336 75.3728H38.097C40.6186 75.3728 42.6703 73.3216 42.6703 70.8006V45.4001H56.1322C58.2645 45.4001 60 43.6652 60 41.5329V16.2572C59.9994 14.1243 58.2645 12.39 56.1322 12.39ZM39.7255 70.8006C39.7255 71.6982 38.9952 72.4285 38.097 72.4285H4.57336C3.67514 72.4285 2.94425 71.6982 2.94425 70.8006V63.1306H39.7261V70.8006H39.7255ZM39.7255 60.1863H2.94425V9.32901H27.1498C27.9629 9.32901 28.6219 8.67001 28.6219 7.85689C28.6219 7.04377 27.9629 6.38476 27.1498 6.38476H2.94425V4.57221C2.94425 3.67456 3.67514 2.94425 4.57336 2.94425H38.097C38.9952 2.94425 39.7261 3.67456 39.7261 4.57221V12.39H26.7219C24.5897 12.39 22.8547 14.1243 22.8547 16.2572V41.5329C22.8547 43.6652 24.5897 45.4001 26.7219 45.4001H28.7846V48.0568C28.7846 48.5703 29.052 49.0465 29.4902 49.3139C29.7254 49.4571 29.9905 49.5289 30.2568 49.5289C30.4874 49.5289 30.7191 49.4749 30.9307 49.3656L38.6318 45.4001H39.7261V60.1863H39.7255ZM57.0552 41.5329C57.0552 42.0418 56.6411 42.4558 56.1322 42.4558H38.2747C38.04 42.4558 37.8094 42.5116 37.6007 42.6192L31.7289 45.6428V43.928C31.7289 43.1148 31.0693 42.4558 30.2568 42.4558H26.7219C26.213 42.4558 25.799 42.0418 25.799 41.5329V16.2572C25.799 15.7483 26.213 15.3342 26.7219 15.3342H56.1322C56.6411 15.3342 57.0552 15.7483 57.0552 16.2572V41.5329Z" fill="#FF5E14"/>
<path d="M11.8442 38.0669C11.3923 38.0669 10.946 37.8594 10.6573 37.4672C8.95577 35.1538 8.0564 32.4125 8.0564 29.5401C8.0564 26.6672 8.95577 23.9265 10.6573 21.6131C11.1392 20.9581 12.0605 20.8178 12.7154 21.2997C13.3704 21.7816 13.5107 22.7028 13.0288 23.3578C11.7022 25.1617 11.0006 27.2992 11.0006 29.5401C11.0006 31.7805 11.7022 33.918 13.0288 35.7225C13.5107 36.3775 13.3704 37.2987 12.7154 37.7806C12.4532 37.9738 12.1473 38.0669 11.8442 38.0669Z" fill="#FF5E14"/>
<path d="M16.9331 35.1542C16.4754 35.1542 16.0245 34.9414 15.7364 34.5418C14.6835 33.0777 14.1274 31.3479 14.1274 29.54C14.1274 27.732 14.6835 26.0029 15.7364 24.5388C16.2114 23.8786 17.1309 23.728 17.7911 24.203C18.4512 24.6774 18.6019 25.5974 18.1269 26.2576C17.4363 27.2179 17.0717 28.3525 17.0717 29.54C17.0717 30.7275 17.4363 31.862 18.1269 32.8224C18.6019 33.4825 18.4512 34.402 17.7911 34.877C17.5312 35.0639 17.231 35.1542 16.9331 35.1542Z" fill="#FF5E14"/>
<path d="M47.3628 40.6917C47.2461 40.6917 47.1271 40.6894 47.0046 40.6848C46.4496 40.6635 41.4381 40.2759 36.3449 33.3C33.4559 29.3396 31.0033 25.0825 32.6071 20.7835C33.5203 18.3355 35.0873 17.2676 35.541 17.0002C36.181 16.5621 36.9487 16.3792 37.7141 16.4838C38.5324 16.596 39.2472 17.0209 39.7268 17.6805L42.2506 21.1383C43.2311 22.4805 42.9154 24.3862 41.5468 25.3868L40.7032 26.0021C41.039 26.8623 41.495 27.8595 42.2984 28.9607C43.1006 30.0596 43.9131 30.7985 44.6308 31.3811L45.4726 30.7669C46.839 29.7698 48.7498 30.0475 49.7326 31.3868L52.2582 34.8498C52.2588 34.8503 52.2594 34.8509 52.2594 34.8515C53.1783 36.1149 52.9333 37.8601 51.6763 39.0016C50.9281 39.6807 49.8143 40.6917 47.3628 40.6917ZM37.0246 19.5437C36.8992 19.6196 35.955 20.2332 35.3656 21.8128C34.4628 24.2326 35.4357 27.0578 38.7233 31.5645C43.0103 37.4369 47.0862 37.7405 47.1271 37.7434C48.6182 37.798 49.0713 37.3897 49.6969 36.8216C49.8108 36.7187 49.8574 36.6151 49.8666 36.5668L47.3559 33.1252C47.3473 33.1131 47.2771 33.0947 47.2081 33.1453L45.7947 34.1758C45.1 34.7359 44.1339 34.7388 43.4151 34.1729C42.5353 33.488 41.1983 32.4478 39.92 30.6962C38.6388 28.94 38.0557 27.35 37.6698 26.2971C37.4294 25.6513 37.5094 24.7444 38.2288 24.1642C38.2472 24.1492 38.2667 24.1343 38.2863 24.1199L39.8101 23.0095C39.882 22.9566 39.8814 22.8864 39.8728 22.8749L37.3478 19.4149C37.3415 19.4062 37.3242 19.4022 37.3144 19.4011C37.292 19.3982 37.2477 19.3982 37.1983 19.4344C37.1281 19.485 37.0988 19.508 37.0246 19.5437ZM49.8787 36.5835V36.5841V36.5835ZM45.2208 31.8474C45.2231 31.8491 45.2254 31.8509 45.2282 31.8532C45.2254 31.8509 45.2231 31.8491 45.2208 31.8474Z" fill="#FF5E14"/>
</svg>
