<?xml version="1.0" encoding="UTF-8"?>
<svg xmlns="http://www.w3.org/2000/svg" viewBox="0 0 36 36" width="36px" height="36px">
<g id="surface4849156">
<path style=" stroke:none;fill-rule:nonzero;fill:rgb(96.470588%,28.627452%,21.568628%);fill-opacity:1;" d="M 20.878906 2.160156 C 19.363281 2.160156 17.59375 3.351562 17.324219 8.664062 C 17.550781 8.65625 17.773438 8.640625 18 8.640625 C 18.253906 8.640625 18.515625 8.652344 18.765625 8.664062 C 18.9375 5.46875 19.695312 3.601562 20.878906 3.601562 C 21.386719 3.601562 21.671875 3.875 22.207031 4.453125 C 22.832031 5.132812 23.648438 6.011719 25.246094 6.34375 C 25.21875 6.15625 25.199219 5.953125 25.199219 5.761719 C 25.199219 5.457031 25.230469 5.167969 25.289062 4.882812 C 24.300781 4.613281 23.777344 4.042969 23.265625 3.488281 C 22.695312 2.867188 22.039062 2.160156 20.878906 2.160156 Z M 29.519531 2.878906 C 27.929688 2.878906 26.640625 4.171875 26.640625 5.761719 C 26.640625 7.347656 27.929688 8.640625 29.519531 8.640625 C 31.109375 8.640625 32.398438 7.347656 32.398438 5.761719 C 32.398438 4.171875 31.109375 2.878906 29.519531 2.878906 Z M 18 10.078125 C 9.265625 10.078125 2.160156 14.53125 2.160156 20.878906 C 2.160156 27.230469 9.265625 32.398438 18 32.398438 C 26.734375 32.398438 33.839844 27.230469 33.839844 20.878906 C 33.839844 14.53125 26.734375 10.078125 18 10.078125 Z M 5.398438 10.753906 C 4.347656 10.753906 3.351562 11.183594 2.585938 11.949219 C 1.347656 13.1875 1.089844 14.972656 1.800781 16.449219 C 2.886719 14.339844 4.761719 12.542969 7.175781 11.203125 C 6.628906 10.925781 6.023438 10.753906 5.398438 10.753906 Z M 30.601562 10.753906 C 29.976562 10.753906 29.371094 10.925781 28.824219 11.203125 C 31.238281 12.542969 33.113281 14.339844 34.199219 16.449219 C 34.910156 14.972656 34.652344 13.1875 33.414062 11.949219 C 32.648438 11.183594 31.652344 10.753906 30.601562 10.753906 Z M 12.238281 16.558594 C 13.433594 16.558594 14.398438 17.527344 14.398438 18.71875 C 14.398438 19.914062 13.433594 20.878906 12.238281 20.878906 C 11.046875 20.878906 10.078125 19.914062 10.078125 18.71875 C 10.078125 17.527344 11.046875 16.558594 12.238281 16.558594 Z M 23.761719 16.558594 C 24.953125 16.558594 25.921875 17.527344 25.921875 18.71875 C 25.921875 19.914062 24.953125 20.878906 23.761719 20.878906 C 22.566406 20.878906 21.601562 19.914062 21.601562 18.71875 C 21.601562 17.527344 22.566406 16.558594 23.761719 16.558594 Z M 11.566406 24.480469 C 11.746094 24.511719 11.921875 24.613281 12.039062 24.773438 C 12.113281 24.878906 13.800781 27.136719 18 27.136719 C 22.253906 27.136719 23.945312 24.816406 23.960938 24.796875 C 24.191406 24.472656 24.648438 24.382812 24.976562 24.613281 C 25.296875 24.84375 25.359375 25.277344 25.132812 25.605469 C 25.046875 25.726562 22.996094 28.574219 18 28.574219 C 13.003906 28.574219 10.953125 25.726562 10.867188 25.605469 C 10.640625 25.277344 10.699219 24.84375 11.023438 24.613281 C 11.1875 24.5 11.386719 24.449219 11.566406 24.480469 Z M 11.566406 24.480469 "/>
</g>
</svg>
